<svg width="100%" xmlns="http://www.w3.org/2000/svg" preserveAspectRatio="xMinYMin meet" viewBox="0 0 80 70"><g transform="translate(13, 13)"><g><path stroke="#444" stroke-width="0.25" stroke-linecap="square" stroke-linejoin="square" d="M 0 0 H 50 M 0 12 H 50 M 0 24 H 50 M 0 36 H 50 M 0 48 H 50M 0 0 V 48 M 10 0 V 48 M 20 0 V 48 M 30 0 V 48 M 40 0 V 48 M 50 0 V 48"></path><path stroke="#444" stroke-width="2" stroke-linecap="round" stroke-linejoin="round" d="M 0 0 H 50"></path><g><text font-size="0.3rem" fill="#444" font-family="Verdana" text-anchor="middle" x="0" y="53">E2</text><text font-size="0.3rem" fill="#444" font-family="Verdana" text-anchor="middle" x="10" y="53">A2</text><text font-size="0.3rem" fill="#444" font-family="Verdana" text-anchor="middle" x="20" y="53">D3</text><text font-size="0.3rem" fill="#444" font-family="Verdana" text-anchor="middle" x="30" y="53">G3</text><text font-size="0.3rem" fill="#444" font-family="Verdana" text-anchor="middle" x="40" y="53">B3</text><text font-size="0.3rem" fill="#444" font-family="Verdana" text-anchor="middle" x="50" y="53">E4</text></g></g><g><g><g transform="translate(0, 6.5)"><path d="
            M 0, 0
            m -4, 0
            a 4,4 0 1,1 8,0
          " fill="#555" fill-opacity="0.2" transform="rotate(-90)"></path></g><rect fill="#555" x="0" y="2.35" width="50" fill-opacity="0.2" height="8.25"></rect><g transform="translate(50, 6.5)"><path d="
            M 0, 0
            m -4, 0
            a 4,4 0 1,1 8,0
          " fill="#555" fill-opacity="0.2" transform="rotate(90)"></path></g></g><circle stroke-width="0.25" stroke="#444" fill="#444" cx="10" cy="6.5" r="4"></circle><circle stroke-width="0.25" stroke="#444" fill="#444" cx="50" cy="6.5" r="4"></circle><rect fill="#444" x="10" y="2.35" width="40" height="8.25"></rect><text font-size="3pt" font-family="Verdana" text-anchor="middle" fill="white" x="10" y="8">1</text><text font-size="3pt" font-family="Verdana" text-anchor="middle" fill="white" x="50" y="8">1</text></g><text font-size="0.7rem" fill="#444" font-family="Verdana" text-anchor="middle" x="0" y="-2">x</text><g><circle stroke-width="0.25" stroke="#444" fill="#444" cx="20" cy="30" r="4"></circle><text font-size="3pt" font-family="Verdana" text-anchor="middle" fill="white" x="20" y="31.5">2</text></g><g><circle stroke-width="0.25" stroke="#444" fill="#444" cx="30" cy="30" r="4"></circle><text font-size="3pt" font-family="Verdana" text-anchor="middle" fill="white" x="30" y="31.5">3</text></g><g><circle stroke-width="0.25" stroke="#444" fill="#444" cx="40" cy="30" r="4"></circle><text font-size="3pt" font-family="Verdana" text-anchor="middle" fill="white" x="40" y="31.5">4</text></g></g></svg>