<svg width="100%" xmlns="http://www.w3.org/2000/svg" preserveAspectRatio="xMinYMin meet" viewBox="0 0 80 70"><g transform="translate(13, 13)"><g><path stroke="#444" stroke-width="0.25" stroke-linecap="square" stroke-linejoin="square" d="M 0 0 H 50 M 0 12 H 50 M 0 24 H 50 M 0 36 H 50 M 0 48 H 50M 0 0 V 48 M 10 0 V 48 M 20 0 V 48 M 30 0 V 48 M 40 0 V 48 M 50 0 V 48"></path><path stroke="#444" stroke-width="2" stroke-linecap="round" stroke-linejoin="round" d="M 0 0 H 50"></path><g><text font-size="0.3rem" fill="#444" font-family="Verdana" text-anchor="middle" x="0" y="53">E2</text><text font-size="0.3rem" fill="#444" font-family="Verdana" text-anchor="middle" x="10" y="53">A2</text><text font-size="0.3rem" fill="#444" font-family="Verdana" text-anchor="middle" x="20" y="53">D3</text><text font-size="0.3rem" fill="#444" font-family="Verdana" text-anchor="middle" x="30" y="53">G3</text><text font-size="0.3rem" fill="#444" font-family="Verdana" text-anchor="middle" x="40" y="53">B3</text><text font-size="0.3rem" fill="#444" font-family="Verdana" text-anchor="middle" x="50" y="53">E4</text></g></g><text font-size="0.7rem" fill="#444" font-family="Verdana" text-anchor="middle" x="0" y="-2">x</text><text font-size="0.7rem" fill="#444" font-family="Verdana" text-anchor="middle" x="10" y="-2">x</text><g><circle stroke-width="0.25" stroke="#444" fill="transparent" cx="20" cy="-4" r="2"></circle></g><g><circle stroke-width="0.25" stroke="#444" fill="#444" cx="30" cy="18" r="4"></circle><text font-size="3pt" font-family="Verdana" text-anchor="middle" fill="white" x="30" y="19.5">1</text></g><g><circle stroke-width="0.25" stroke="#444" fill="#444" cx="40" cy="30" r="4"></circle><text font-size="3pt" font-family="Verdana" text-anchor="middle" fill="white" x="40" y="31.5">3</text></g><g><circle stroke-width="0.25" stroke="#444" fill="#444" cx="50" cy="18" r="4"></circle><text font-size="3pt" font-family="Verdana" text-anchor="middle" fill="white" x="50" y="19.5">2</text></g></g></svg>