<svg width="100%" xmlns="http://www.w3.org/2000/svg" preserveAspectRatio="xMinYMin meet" viewBox="0 0 80 70"><g transform="translate(13, 13)"><g><path stroke="#444" stroke-width="0.25" stroke-linecap="square" stroke-linejoin="square" d="M 10 0 H 40 M 10 12 H 40 M 10 24 H 40 M 10 36 H 40 M 10 48 H 40M 10 0 V 48 M 20 0 V 48 M 30 0 V 48 M 40 0 V 48"></path><text font-size="0.25rem" fill="#444" font-family="Verdana" x="4" y="8">3fr</text><g><text font-size="0.3rem" fill="#444" font-family="Verdana" text-anchor="middle" x="10" y="53">G4</text><text font-size="0.3rem" fill="#444" font-family="Verdana" text-anchor="middle" x="20" y="53">C4</text><text font-size="0.3rem" fill="#444" font-family="Verdana" text-anchor="middle" x="30" y="53">E4</text><text font-size="0.3rem" fill="#444" font-family="Verdana" text-anchor="middle" x="40" y="53">A4</text></g></g><g><circle stroke-width="0.25" stroke="#444" fill="#444" cx="10" cy="42" r="4"></circle><text font-size="3pt" font-family="Verdana" text-anchor="middle" fill="white" x="10" y="43.5">4</text></g><g><circle stroke-width="0.25" stroke="#444" fill="#444" cx="20" cy="6.5" r="4"></circle><text font-size="3pt" font-family="Verdana" text-anchor="middle" fill="white" x="20" y="8">1</text></g><g><circle stroke-width="0.25" stroke="#444" fill="#444" cx="30" cy="30" r="4"></circle><text font-size="3pt" font-family="Verdana" text-anchor="middle" fill="white" x="30" y="31.5">3</text></g><g><circle stroke-width="0.25" stroke="#444" fill="#444" cx="40" cy="18" r="4"></circle><text font-size="3pt" font-family="Verdana" text-anchor="middle" fill="white" x="40" y="19.5">2</text></g></g></svg>